<?xml version="1.0" standalone="no"?>
<!DOCTYPE svg PUBLIC "-//W3C//DTD SVG 20010904//EN"
 "http://www.w3.org/TR/2001/REC-SVG-20010904/DTD/svg10.dtd">
<svg version="1.0" xmlns="http://www.w3.org/2000/svg"
 width="260.000000pt" height="260.000000pt" viewBox="0 0 260.000000 260.000000"
 preserveAspectRatio="xMidYMid meet">
<metadata>
Created by potrace 1.11, written by Peter Selinger 2001-2013
</metadata>
<g transform="translate(0.000000,260.000000) scale(0.100000,-0.100000)"
fill="#000000" stroke="none">
<path d="M97 2283 c-4 -3 -1 -13 6 -21 9 -13 9 -14 0 -8 -8 4 -13 1 -13 -9 0
-10 -5 -13 -12 -9 -7 4 -8 3 -4 -4 4 -6 12 -10 19 -8 7 1 9 1 4 -1 -4 -3 -4
-10 -1 -15 4 -6 2 -8 -4 -4 -6 3 -13 2 -17 -4 -3 -5 -1 -10 4 -10 6 0 11 -10
11 -22 0 -19 -2 -20 -10 -8 -5 8 -10 10 -10 5 0 -6 6 -17 13 -24 10 -11 9 -13
-6 -8 -12 5 -16 3 -11 -4 4 -6 1 -15 -6 -19 -9 -5 -9 -9 -1 -14 6 -4 11 -2 11
3 0 6 5 11 11 11 6 0 7 -5 2 -12 -10 -17 -11 -31 -1 -44 5 -7 2 -17 -7 -24 -8
-7 -12 -17 -8 -24 4 -6 1 -6 -9 2 -13 10 -15 9 -13 -12 2 -14 6 -30 10 -35 3
-6 1 -11 -6 -11 -8 0 -9 -4 0 -13 8 -10 7 -17 -2 -26 -9 -11 -9 -14 1 -18 6
-3 9 -10 5 -16 -12 -17 -12 -87 -1 -87 5 0 6 -4 3 -10 -3 -5 1 -10 10 -10 10
0 14 -5 9 -12 -5 -10 -3 -10 7 0 12 11 12 14 0 21 -8 5 0 8 22 7 19 0 34 -3
32 -6 -2 -3 0 -12 6 -20 7 -12 9 -12 9 4 0 17 2 17 24 2 18 -11 27 -13 32 -4
4 6 3 9 -2 6 -5 -3 -16 1 -24 10 -13 14 -12 15 5 7 11 -5 32 -8 47 -8 15 0 25
-3 23 -8 -3 -4 0 -11 6 -15 8 -4 9 -3 5 4 -4 7 -1 12 8 12 8 0 16 -3 19 -7 2
-5 2 -2 1 5 -2 6 0 12 4 12 5 0 14 -6 21 -12 8 -7 11 -8 8 -3 -3 6 8 10 23 11
16 1 27 -4 26 -10 -2 -6 -1 -8 1 -3 3 4 10 4 15 1 6 -4 8 -2 4 4 -3 6 -2 13 4
17 9 6 14 -8 11 -28 -1 -5 3 -6 9 -2 6 3 8 10 5 15 -3 5 0 12 6 16 8 4 9 3 5
-4 -4 -7 -2 -12 4 -12 6 0 8 -5 4 -12 -5 -7 -3 -8 5 -4 7 5 10 14 7 22 -3 8
-1 14 4 14 6 0 10 -7 10 -15 0 -8 5 -15 11 -15 5 0 8 4 5 9 -4 5 4 7 16 3 14
-3 19 -1 14 6 -3 6 -1 14 5 18 8 4 9 3 5 -4 -3 -6 3 -16 15 -23 18 -9 21 -9
16 3 -3 8 1 15 9 15 7 0 11 -4 9 -8 -3 -4 2 -10 11 -13 8 -3 12 -2 9 4 -3 6
-2 10 4 10 5 0 15 -8 21 -17 10 -16 11 -16 7 3 -3 17 0 21 17 20 11 -1 27 -10
34 -21 13 -19 13 -19 8 3 -3 17 -1 21 7 14 7 -5 23 -9 36 -10 13 0 28 -7 32
-14 7 -10 9 -9 9 5 0 9 -5 17 -12 17 -6 0 -8 3 -5 7 4 3 15 -1 24 -9 10 -9 26
-14 36 -13 21 4 21 1 0 -16 -15 -12 -16 -12 -8 1 4 8 4 12 0 7 -12 -10 -15
-38 -4 -31 5 3 9 1 9 -4 0 -17 -13 -22 -27 -10 -11 9 -12 7 -7 -7 5 -13 4 -16
-4 -11 -8 5 -10 2 -6 -8 5 -12 0 -16 -17 -16 -17 0 -20 -3 -11 -9 11 -7 10 -9
-3 -15 -10 -3 -13 -11 -9 -18 6 -10 5 -10 -8 0 -13 10 -15 9 -13 -13 2 -14 -1
-25 -6 -25 -5 0 -9 5 -9 10 0 6 -5 10 -11 10 -6 0 -9 -6 -6 -14 3 -8 -1 -17
-10 -20 -9 -4 -13 -13 -9 -22 3 -8 2 -12 -4 -9 -6 3 -14 -5 -20 -19 -6 -16
-15 -24 -23 -20 -10 3 -17 -4 -21 -21 -4 -16 -11 -23 -18 -19 -8 5 -9 1 -4
-11 5 -15 4 -16 -8 -6 -13 11 -15 9 -11 -8 2 -12 0 -19 -5 -16 -5 3 -12 -4
-15 -15 -5 -16 -10 -18 -20 -10 -11 9 -13 6 -11 -14 2 -14 -1 -23 -5 -20 -5 3
-17 0 -26 -6 -16 -11 -16 -11 -1 -6 10 3 20 0 24 -6 4 -6 3 -9 -2 -6 -18 11
-56 -11 -50 -28 4 -12 2 -15 -9 -10 -9 3 -15 0 -15 -10 0 -9 5 -12 12 -8 6 4
8 3 5 -3 -4 -6 -18 -9 -32 -8 -14 2 -23 -1 -19 -6 3 -5 10 -7 15 -3 6 3 5 -3
-3 -15 -7 -12 -14 -17 -16 -11 -2 5 -8 10 -14 10 -6 0 -7 -7 -4 -16 4 -10 -1
-18 -14 -21 -10 -3 -22 -15 -26 -26 -7 -22 -28 -47 -40 -47 -11 0 -44 -42 -44
-57 0 -8 -5 -11 -12 -7 -8 5 -9 2 -5 -10 4 -9 3 -15 -2 -12 -5 3 -12 -1 -15
-10 -3 -8 -10 -12 -16 -9 -6 3 -10 -4 -10 -17 0 -19 -2 -20 -11 -8 -9 12 -10
10 -6 -8 5 -19 3 -21 -9 -11 -12 10 -13 9 -8 -5 4 -11 2 -16 -7 -14 -8 2 -13
-3 -11 -11 2 -9 -3 -11 -14 -7 -15 6 -15 4 -3 -11 7 -10 9 -15 5 -11 -5 4 -15
0 -23 -10 -8 -9 -11 -11 -7 -3 4 9 3 12 -4 7 -6 -4 -9 -13 -6 -20 3 -8 0 -17
-7 -22 -8 -5 -10 -3 -4 6 5 8 4 11 -2 7 -7 -4 -11 -111 -11 -297 l-1 -290 640
0 639 0 -2 272 -3 273 -35 -4 c-19 -1 -38 -8 -42 -15 -5 -7 -8 -3 -8 9 0 17
-2 17 -10 5 -5 -8 -10 -10 -10 -5 0 6 -17 9 -37 9 -21 -1 -44 4 -52 10 -11 8
-13 8 -7 -1 5 -10 -7 -12 -53 -9 -50 2 -61 0 -62 -13 -1 -9 -5 -5 -9 9 -6 18
-8 20 -9 7 -1 -12 -5 -15 -13 -11 -7 5 -30 9 -50 9 -28 1 -38 -3 -39 -14 -1
-9 -5 -5 -9 9 -6 17 -8 19 -9 7 -1 -14 -5 -16 -20 -7 -29 15 -35 12 -20 -7 13
-16 12 -17 -2 -5 -17 12 -181 24 -174 12 2 -4 -10 -4 -28 -2 -18 3 -27 7 -20
9 6 2 9 15 7 29 -3 16 -1 23 6 19 5 -3 10 0 10 8 0 8 8 21 18 28 16 13 16 12
2 -6 -12 -17 -12 -18 0 -7 8 7 15 20 15 30 0 10 7 16 18 16 9 -1 17 2 17 7 0
5 -4 9 -10 9 -5 0 -10 4 -10 10 0 5 7 6 17 3 11 -4 14 -3 9 6 -5 8 -1 14 13
18 11 3 18 9 15 14 -3 5 0 9 6 9 7 0 9 7 6 16 -5 14 -4 15 8 5 11 -9 15 -8 20
4 3 9 11 13 17 9 8 -4 9 -3 5 5 -6 9 -11 9 -24 -1 -9 -7 -5 2 8 20 26 35 31
39 26 20 -1 -7 -1 -10 1 -5 3 4 8 5 13 2 4 -3 7 3 6 13 0 9 5 16 12 14 8 -1
11 2 6 9 -3 6 4 21 18 33 13 11 17 17 8 11 -13 -9 -13 -8 -1 8 7 9 21 16 30
15 11 -2 16 4 15 23 -1 15 4 26 12 26 11 0 11 -3 1 -16 -11 -14 -10 -14 6 -2
13 11 15 17 6 28 -9 11 -9 12 3 8 8 -3 21 2 29 11 12 16 12 17 -1 10 -11 -6
-11 -4 1 6 9 7 17 18 19 23 3 13 57 75 65 75 4 0 3 -5 -1 -12 -4 -7 -3 -8 4
-4 6 4 9 13 5 22 -3 8 -2 14 3 12 5 -2 20 5 34 15 13 9 20 17 14 17 -5 0 -15
-5 -22 -12 -19 -19 -14 -3 7 20 10 12 22 18 26 14 5 -4 5 2 1 12 -5 16 -4 17
8 7 13 -11 15 -9 11 8 -2 12 0 19 6 16 5 -4 9 -1 9 5 0 6 4 9 9 5 6 -3 8 4 6
16 -4 18 -2 19 13 8 9 -7 14 -10 10 -5 -4 5 3 17 15 28 12 11 16 17 10 13 -9
-4 -11 -1 -7 9 3 9 11 13 17 9 7 -4 8 0 3 13 -4 10 -4 15 0 11 8 -8 40 33 36
46 -1 5 2 6 8 2 8 -5 7 -12 -2 -23 -12 -15 -11 -16 5 -3 9 8 15 16 12 19 -3 3
4 11 14 19 19 13 20 28 21 298 l1 285 -609 0 c-335 0 -612 -3 -615 -7z m-27
-303 c0 -5 -2 -10 -4 -10 -3 0 -8 5 -11 10 -3 6 -1 10 4 10 6 0 11 -4 11 -10z
m1235 -249 c3 -5 2 -12 -3 -15 -5 -3 -9 1 -9 9 0 17 3 19 12 6z m-710 -840 c3
-5 2 -12 -3 -15 -5 -3 -9 1 -9 9 0 17 3 19 12 6z"/>
<path d="M1430 1680 l0 -610 285 0 285 0 0 610 0 610 -285 0 -285 0 0 -610z"/>
<path d="M48 2053 c6 -2 10 -9 6 -14 -3 -5 -1 -9 5 -9 17 0 21 18 5 24 -9 3
-19 6 -22 5 -4 0 -1 -3 6 -6z"/>
<path d="M106 1767 c3 -10 9 -15 12 -12 3 3 0 11 -7 18 -10 9 -11 8 -5 -6z"/>
<path d="M640 1776 c0 -2 7 -9 15 -16 9 -7 15 -8 15 -2 0 5 -7 12 -15 16 -8 3
-15 4 -15 2z"/>
<path d="M515 1760 c-3 -5 -1 -10 4 -10 6 0 11 5 11 10 0 6 -2 10 -4 10 -3 0
-8 -4 -11 -10z"/>
<path d="M1001 1366 c-17 -18 -19 -26 -10 -31 7 -5 10 -4 5 3 -3 6 4 18 16 26
12 9 19 18 17 21 -3 3 -16 -6 -28 -19z"/>
<path d="M1430 575 l0 -265 558 0 c342 0 563 4 572 10 13 9 13 10 0 10 -13 0
-13 1 0 10 13 9 13 10 0 10 -13 0 -13 1 0 10 13 8 12 10 -4 10 -20 0 -20 0 0
15 12 10 13 13 3 10 -12 -5 -14 1 -11 31 3 28 1 35 -8 29 -9 -5 -11 -4 -6 3 4
7 2 12 -4 12 -6 0 -8 5 -5 10 5 8 11 8 20 0 10 -8 15 -8 21 1 4 7 3 10 -2 7
-5 -3 -15 0 -21 8 -9 9 -10 15 -2 20 8 4 4 13 -12 24 -19 15 -21 21 -11 33 10
12 10 16 0 20 -7 3 -4 6 7 6 16 1 17 3 5 10 -8 6 -19 7 -25 5 -5 -3 1 5 15 17
16 15 19 20 8 16 -19 -7 -21 15 -4 42 7 10 3 12 -15 6 -13 -3 -19 -3 -14 2 6
4 17 17 25 28 14 19 14 19 -4 5 -18 -14 -19 -13 -13 3 3 9 3 17 -1 17 -4 0
-13 10 -21 23 -13 19 -12 21 1 9 13 -10 15 -8 14 17 -1 20 -5 27 -15 23 -9 -3
-12 -1 -7 6 5 8 -129 11 -519 12 l-525 0 0 -265z m1110 -49 c0 -2 -7 -7 -16
-10 -8 -3 -12 -2 -9 4 6 10 25 14 25 6z"/>
<path d="M2520 560 c0 -5 5 -10 10 -10 6 0 10 5 10 10 0 6 -4 10 -10 10 -5 0
-10 -4 -10 -10z"/>
</g>
</svg>
